<?xml version="1.0" encoding="utf-8"?>
<!-- Generator: Adobe Illustrator 15.0.3, SVG Export Plug-In . SVG Version: 6.00 Build 0)  -->
<!DOCTYPE svg PUBLIC "-//W3C//DTD SVG 1.1//EN" "http://www.w3.org/Graphics/SVG/1.1/DTD/svg11.dtd">
<svg version="1.1"
	 id="svg2" xmlns:svg="http://www.w3.org/2000/svg" xmlns:cc="http://creativecommons.org/ns#" xmlns:rdf="http://www.w3.org/1999/02/22-rdf-syntax-ns#" xmlns:dc="http://purl.org/dc/elements/1.1/"
	 xmlns="http://www.w3.org/2000/svg" xmlns:xlink="http://www.w3.org/1999/xlink" x="0px" y="0px" width="611.219px"
	 height="614.969px" viewBox="0 0 611.219 614.969" enable-background="new 0 0 611.219 614.969" xml:space="preserve">
<g>
	<defs>
		<rect id="SVGID_1_" x="0" width="611.219" height="614.969"/>
	</defs>
	<clipPath id="SVGID_2_">
		<use xlink:href="#SVGID_1_"  overflow="visible"/>
	</clipPath>
	<g id="g14" clip-path="url(#SVGID_2_)">
		<g id="g32" transform="translate(244.4888,481.6934)">
			<path id="path34" fill="#FFFFFF" stroke="#0000F1" stroke-width="8" d="M61.122-468.841
				c162.054,0,293.423,131.911,293.423,294.631c0,162.72-131.369,294.631-293.423,294.631C-100.93,120.421-232.3-11.49-232.3-174.21
				C-232.3-336.93-100.93-468.841,61.122-468.841z"/>
		</g>
		<g id="g20" transform="translate(170.9595,125.2695)">
			<path id="path22" fill="#F6DB23" d="M42.74,333.112c5.608-0.85,7.917-1.369,16.715-3.758c1.719-0.466,9.986-3.12,18.372-5.896
				c19.185-6.351,23.259-7.241,32.878-7.183c6.764,0.04,7.95,0.225,12.091,1.87c2.525,1.003,5.4,2.529,6.388,3.389
				c2.78,2.42,4.549,3.75,4.987,3.75c0.222,0,1.178-0.668,2.128-1.484c2.422-2.081,9.379-5.864,12.45-6.77
				c1.479-0.438,5.916-0.74,10.393-0.71c9.39,0.062,12.378,0.755,33.125,7.669c21.765,7.252,28.67,8.974,39.201,9.77
				c12.083,0.911,25.813-2.883,34.538-9.545l3.018-2.162c0,0,0.237-278.588,0-278.894c-0.241-0.31-1.351-0.079-2.5,0.52
				c-13.101,6.824-18.419,8.177-31.755,8.083c-13.707-0.096-21.504-1.83-47.812-10.632c-27.555-9.219-39.407-8.606-47.809,2.474
				c-5.114,6.745-4.867,6.534-5.964,5.112c-5.419-7.028-6.832-8.612-8.91-9.987c-3.84-2.541-9-4.075-13.708-4.074
				c-5.045,0.001-12.996,1.325-18.431,3.069c-35.094,11.26-34.733,11.157-46.429,13.269c-6.389,1.154-20.835,0.98-26.562-0.316
				c-2.578-0.583-7.5-2.347-10.938-3.918c-3.438-1.573-6.882-3.001-7.656-3.179l-1.406-0.32v139.425v139.425l1.368,0.731
				c0.751,0.402,1.931,1.259,2.622,1.901c1.709,1.594,11.92,6.455,15.385,7.325c8.459,2.125,15.159,2.412,24.223,1.038
				L42.74,333.112z M19.802,340.53c-9.614-2.101-20.15-7.457-26.758-13.602l-2.021-1.888c0,0-0.252-297.894,0-298.288
				c0.307-0.482,2.824,0.827,6.556,3.893c3.092,2.54,6.466,5.058,7.497,5.595c1.031,0.539,2.719,1.474,3.75,2.079
				c13.276,7.792,31.959,7.639,56.875-0.466c4.125-1.342,8.344-2.749,9.375-3.127c11.911-4.368,28.418-8.194,35.267-8.175
				c7.397,0.02,16.886,3.532,21.413,7.929l2.304,2.237l2.883-2.538c6.666-5.869,15.716-8.336,26.25-7.159
				c8.617,0.962,12.179,1.928,36.259,9.815c18.384,6.024,26.959,7.573,38.949,7.036c8.926-0.4,14.772-1.978,21.988-5.934
				c3.778-2.07,8.861-5.671,10.312-7.306c1.188-1.35,5.845-4.107,6.562-4.107c0.551,0,0,298.501,0,298.501l-2.031,1.929
				c-2.183,2.075-10.021,7.319-13.594,9.096c-7.058,3.508-16.426,5.471-26.129,5.471c-12.337,0-21.723-1.972-42.309-8.886
				c-21.527-7.229-27.139-8.612-34.902-8.613c-9.203-0.001-15.396,3.205-20.593,10.66c-1.304,1.87-2.752,3.486-3.219,3.591
				c-0.465,0.105-2.122-1.468-3.681-3.492c-6.081-7.913-10.375-10.294-19.163-10.651c-8.417-0.338-12.877,0.688-35.625,8.202
				c-14.404,4.758-24.071,7.396-31.25,8.531c-5.71,0.905-20.148,0.701-24.965-0.351L19.802,340.53z"/>
		</g>
		<g id="g24" transform="translate(178.2095,154.3936)">
			<path id="path26" fill="#0000EC" d="M44.552,267.583c-6.921-1.512-14.508-5.369-19.265-9.793l-1.455-1.357
				c0,0-0.183-210.734,0-211.017c0.22-0.347,2.032,0.594,4.719,2.801c2.226,1.829,7.025,3.56,8.636,3.997
				c10.196,2.93,22.473,3.279,40.413-2.557c2.969-0.966,6.007-1.98,6.748-2.252c8.578-3.144,20.462-5.898,25.392-5.886
				c5.327,0.015,12.16,2.545,15.418,5.71l1.66,1.611l2.075-1.828c4.8-4.225,11.315-6.002,18.9-5.155
				c6.205,0.694,8.769,1.389,26.107,7.067c13.233,4.336,19.054,4.734,28.036,5.281c8.572-0.045,8.254,0.045,15.838-1.987
				c2.949-1.067,5.913-2.938,7.425-4.011c1.27-0.796,4.207-2.956,4.725-2.956c0.396,0,0,211.17,0,211.17l-1.462,1.39
				c-1.573,1.494-7.217,5.269-9.788,6.549c-5.082,2.524-11.827,3.938-18.813,3.938c-8.882,0-15.641-1.417-30.461-6.396
				c-15.499-5.205-19.54-6.203-25.132-6.203c-6.625-0.002-11.084,2.309-14.825,7.675c-0.938,1.348-1.982,2.511-2.317,2.587
				c-0.335,0.074-1.528-1.059-2.651-2.516c-4.377-5.696-7.47-7.412-13.797-7.668c-6.061-0.244-9.271,0.496-25.648,5.904
				c-10.373,3.426-17.332,5.326-22.5,6.144c-4.113,0.651-14.508,0.505-17.976-0.254L44.552,267.583z"/>
		</g>
		<g id="g28" transform="translate(158.8271,95.2793)">
			<path id="path30" fill="#E80D0E" d="M39.706,400.59c9.454-2.005,13.797-3.305,36.562-10.939c23.24-7.795,31.45-9.58,42.5-9.241
				c6.424,0.197,8.614,0.527,12.323,1.858c4.488,1.61,10.99,5.769,13.88,8.879c0.832,0.896,1.761,1.629,2.062,1.629
				c0.301,0,1.587-1.025,2.858-2.277c3.718-3.663,9.346-6.994,14.64-8.666c3.973-1.254,6.222-1.557,11.611-1.556
				c11.602,0.001,18.884,1.694,44.5,10.343c9.797,3.309,21.481,6.959,25.969,8.111c26.878,6.898,45.857,4.812,63.606-6.996
				c3.375-2.246,6.259-4.406,6.411-4.803c0.148-0.396,0-357.2,0-357.2l-3.494,2.194c-5.483,3.501-9.889,5.567-16.25,7.629
				c-8.716,2.822-13.006,3.453-23.438,3.444c-15.527-0.014-25.02-2.046-53.966-11.558c-21.522-7.073-28.617-9.005-36.728-10.009
				c-11.63-1.441-20.898,1.471-27.935,8.772c-2.191,2.276-4.736,5.334-5.655,6.794c-0.919,1.461-1.879,2.65-2.133,2.641
				c-0.252-0.007-1.726-1.872-3.272-4.143c-9.375-13.761-21.783-17.199-43.483-12.045c-2.917,0.692-12.539,3.665-21.38,6.605
				c-26.98,8.973-36.521,11.4-50.137,12.755c-17.466,1.739-35.415-2.427-48.503-11.26c-1.457-0.984-3.181-1.625-3.379-1.425
				c-0.206,0.194,0,356.306,0,356.306l2.966,2.535c6.74,5.763,18.615,11.022,29.026,12.857c7.646,1.348,21.219,0.808,30.82-1.229
				L39.706,400.59z M11.269,409.871c-9.787-1.471-16.627-3.557-24.439-7.458c-5.088-2.538-13.95-8.688-16.342-11.338
				c-1.04-1.151,0-377.875,0-377.875l4.584,4.679c9.603,8.372,19.103,13.389,30.572,16.147c4.783,1.15,7.698,1.427,15,1.423
				c14.628-0.008,23.092-1.881,53.369-11.817c27.985-9.184,38.659-11.268,49.553-9.677c8.139,1.191,13.736,3.821,19.52,9.178
				l3.789,3.508l3.916-3.524c6.586-5.925,16.586-9.719,25.625-9.719c9.301,0,23.044,3.097,40.479,9.123
				c19.83,6.853,30.923,10.001,41.563,11.792c16.821,2.831,31.43,1.056,44.237-5.375c6.542-3.283,9.463-5.263,16.231-10.997
				l5.469-4.632v377.374l-3.906,3.115c-14.153,11.29-28.868,16.47-46.719,16.447c-15.522-0.021-28.684-3.067-60-13.897
				c-18.688-6.461-27.848-8.582-36.928-8.555c-11.851,0.033-18.771,3.698-26.242,13.896l-3.57,4.872l-3.012-4.235
				c-7.575-10.668-14.831-14.557-27.124-14.551c-9.656,0.005-16.742,1.787-44.554,11.214c-19.008,6.442-28.862,9.047-39.173,10.358
				c-6.515,0.828-17.988,1.093-21.898,0.505L11.269,409.871z"/>
		</g>
		<g id="g36" transform="translate(207.5146,264.3467)">
			<path id="path38" fill="#FFFFFF" d="M51.878,20.188c-3.483,6.405-27.221-3.962-29.108,2.393
				c-1.886,6.355,23.686,10.545,23.108,17.814c-0.577,7.268-26.496,7.452-25.635,14.025s25.942,0.001,28.373,6.876
				c2.429,6.875-21.191,17.582-17.731,23.236s23.718-10.55,28.732-5.255c5.017,5.29-12.224,24.679-6.763,28.438
				c5.46,3.757,17.393-19.284,24.128-16.487c6.734,2.793-1.146,27.516,5.37,28.728s8.063-24.688,15.352-24.872
				c7.29-0.188,10.129,25.601,16.575,24.057c6.449-1.542-2.659-25.83,3.927-28.966c6.583-3.134,19.648,19.268,24.909,15.236
				c5.263-4.032-12.917-22.515-8.179-28.058c4.739-5.541,25.771,9.609,28.938,3.785c3.167-5.822-20.943-15.312-18.867-22.303
				s27.434-1.706,27.957-8.313c0.525-6.608-25.344-5.468-26.289-12.7c-0.946-7.229,24.351-12.718,22.141-18.968
				c-2.206-6.25-25.358,5.314-29.165-0.906c-3.806-6.22,17.057-21.525,12.496-26.336c-4.559-4.812-20.989,15.171-26.995,11.036
				c-6.007-4.134,6.81-26.603,0.686-29.144c-6.121-2.542-12.986,22.398-20.155,21.065c-7.169-1.334-4.616-27.075-11.242-26.906
				C87.813-32.169,91.7-6.591,84.61-4.893c-7.091,1.696-15.246-22.86-21.231-20.009c-5.983,2.849,7.988,24.634,2.2,29.07
				c-5.787,4.434-23.241-14.683-27.55-9.644C33.72-0.438,55.363,13.782,51.878,20.188"/>
		</g>
	</g>
</g>
</svg>
